<svg xmlns="http://www.w3.org/2000/svg" viewBox="0 0 600 400">
<ellipse cx="300" cy="358" rx="235" ry="14" fill="#000000" opacity=".12"/>
<path d="M96 286 C84 236 120 196 200 186 L306 194 L318 286Z" fill="#2B4A6F"/>
<path d="M140 166 L296 172 C306 172 310 180 308 190 L140 190 C130 190 126 180 140 166Z" fill="#1E1E1E"/>
<rect x="302" y="262" width="100" height="22" rx="6" fill="#23364F"/>
<path d="M384 286 C396 230 404 172 416 116 L452 116 C456 176 462 236 482 286Z" fill="#2B4A6F"/>
<path d="M408 102 L470 96 C480 96 484 106 478 114 L408 120Z" fill="#23364F"/>
<path d="M468 106 L490 112 L468 124Z" fill="#FFF4D6"/>
<path d="M424 100 L414 62" stroke="#3A3A3A" stroke-width="4" stroke-linecap="round"/>
<ellipse cx="412" cy="58" rx="10" ry="7" fill="#3A3A3A"/>
<path d="M442 122 L452 296" stroke="#4A4A4A" stroke-width="10" stroke-linecap="round"/>
<path d="M404 262 C416 236 436 226 460 226 C484 226 504 238 514 262" fill="none" stroke="#2B4A6F" stroke-width="12" stroke-linecap="round"/>
<path d="M92 222 L110 216 L110 238 L92 238Z" fill="#C8472E"/>
<circle cx="176" cy="300" r="54" fill="#1C1C1C"/>
<circle cx="176" cy="300" r="32" fill="#9FA7AD"/>
<circle cx="176" cy="300" r="10" fill="#5E666B"/>
<circle cx="456" cy="300" r="54" fill="#1C1C1C"/>
<circle cx="456" cy="300" r="32" fill="#9FA7AD"/>
<circle cx="456" cy="300" r="10" fill="#5E666B"/>
</svg>
